<svg width="18" height="11" viewBox="0 0 18 11" fill="none" xmlns="http://www.w3.org/2000/svg">
<path d="M3.94787 1.06174C4.45038 2.29611 5.08724 3.45992 5.92604 4.50469C6.03729 4.64373 6.17752 4.76734 6.32526 4.86798C6.54104 5.01539 6.74464 4.96358 6.83238 4.71805C6.92518 4.46039 7.01034 3.93821 7.0154 3.66765C7.02925 2.96067 7.01333 2.49734 6.97514 1.79123C6.95039 1.33898 6.78876 0.941876 6.11997 0.822017C5.91343 0.784856 5.89425 0.615754 6.02694 0.447063C6.30318 0.0958613 6.688 0.0398903 7.1053 0.0177399C7.78164 -0.0185976 8.46046 0.0110582 9.13763 0.0177399C9.41345 0.020257 9.69094 0.0423618 9.96257 0.101262C10.3169 0.178101 10.5066 0.425325 10.565 0.769387C10.5952 0.946865 10.6108 1.12933 10.6066 1.30891C10.5889 2.08061 10.5516 2.85188 10.5428 3.62317C10.539 3.9259 10.5612 4.23619 10.6263 4.53101C10.7174 4.94189 10.9987 5.04504 11.2863 4.74816C11.6515 4.37111 11.9735 3.94682 12.2757 3.51589C12.8249 2.73207 13.235 1.87187 13.5881 0.984941C13.7707 0.527289 13.9105 0.427888 14.4054 0.426652C15.3357 0.424547 16.266 0.423723 17.1963 0.426652C17.3613 0.427476 17.5339 0.442944 17.6896 0.492233C17.9423 0.572414 18.0427 0.777442 17.9835 1.03762C17.8454 1.6473 17.5141 2.1655 17.1594 2.6637C16.5901 3.46294 15.9936 4.24301 15.4109 5.03305C15.3366 5.13369 15.2711 5.24101 15.2102 5.34998C14.9923 5.74168 15.0075 5.96131 15.3252 6.28743C15.8311 6.8065 16.3727 7.29211 16.8626 7.82537C17.2186 8.21332 17.5481 8.63422 17.8303 9.07727C18.1871 9.63767 17.9667 10.1655 17.3 10.2594C16.8807 10.3183 14.8321 10.2599 14.7262 10.2594C14.1754 10.257 13.6926 10.0669 13.3039 9.69487C12.8715 9.28065 12.4785 8.8263 12.0633 8.39409C11.9382 8.2638 11.8047 8.13895 11.6607 8.02994C11.3211 7.77228 10.9878 7.82949 10.8291 8.22623C10.6935 8.56699 10.5763 9.46184 10.5709 9.53827C10.5423 9.93789 10.2867 10.1926 9.8366 10.2172C8.5373 10.2874 7.27825 10.1433 6.10534 9.51822C5.11121 8.98872 4.31737 8.24 3.62971 7.36685C2.53736 5.97998 1.67455 4.4555 0.88682 2.88626C0.846562 2.80603 0.0487145 1.11729 0.0272742 1.03753C-0.0439943 0.77044 0.0224892 0.515299 0.249361 0.427476C0.390794 0.37274 3.02133 0.427292 3.06509 0.429626C3.48483 0.452234 3.77105 0.628385 3.94787 1.06174Z" fill="white"/>
</svg>
