<svg width="18" height="15" viewBox="0 0 18 15" fill="none" xmlns="http://www.w3.org/2000/svg">
<path d="M4.42552 8.65461L0.360425 7.33012C0.360425 7.33012 -0.125399 7.13301 0.031036 6.68605C0.0632392 6.59388 0.128201 6.51546 0.32253 6.38068C1.22325 5.75285 16.9941 0.0843941 16.9941 0.0843941C16.9941 0.0843941 17.4394 -0.0656561 17.702 0.0341461C17.767 0.0542574 17.8254 0.0912659 17.8714 0.141385C17.9174 0.191504 17.9492 0.252935 17.9636 0.319394C17.992 0.436779 18.0039 0.557547 17.9989 0.67821C17.9976 0.782593 17.985 0.879341 17.9754 1.03106C17.8794 2.58084 15.005 14.1473 15.005 14.1473C15.005 14.1473 14.833 14.8242 14.2168 14.8473C14.0654 14.8522 13.9145 14.8266 13.7732 14.7719C13.6319 14.7173 13.5031 14.6347 13.3944 14.5292C12.1852 13.4891 8.00605 10.6805 7.08256 10.0628C7.06173 10.0486 7.04419 10.0301 7.03112 10.0086C7.01804 9.98702 7.00974 9.96291 7.00678 9.93788C6.99387 9.87278 7.06466 9.79213 7.06466 9.79213C7.06466 9.79213 14.3417 3.32373 14.5354 2.64469C14.5504 2.59208 14.4937 2.56612 14.4177 2.58917C13.9343 2.76698 5.55569 8.05816 4.63096 8.64212C4.56439 8.66226 4.49404 8.66653 4.42552 8.65461V8.65461Z" fill="white"/>
</svg>
