<svg width="20" height="20" viewBox="0 0 20 20" fill="none" xmlns="http://www.w3.org/2000/svg">
<path d="M20 9.70686C20 15.0489 15.6351 19.4137 10.1629 19.4137C8.46906 19.4137 6.84039 18.9576 5.40716 18.1759L0 20L1.75896 14.7883C0.846906 13.2899 0.325733 11.5961 0.325733 9.772C0.390879 4.36482 4.7557 0 10.1629 0C15.57 0 20 4.36482 20 9.70686ZM10.1629 1.56351C5.60261 1.56351 1.9544 5.21172 1.9544 9.70686C1.9544 11.4658 2.54071 13.1596 3.51791 14.5277L2.47557 17.5896L5.66775 16.6124C6.97069 17.4592 8.5342 17.9805 10.228 17.9805C14.7883 17.9805 18.5016 14.3323 18.5016 9.772C18.4365 5.21172 14.7231 1.56351 10.1629 1.56351ZM15.114 11.987C15.0489 11.8567 14.9186 11.8567 14.658 11.7264C14.3974 11.5961 13.2248 11.0098 13.0293 10.9447C12.8339 10.8795 12.6385 10.8143 12.5082 11.075C12.3778 11.3355 11.8567 11.8567 11.7264 11.987C11.5961 12.1172 11.4658 12.1824 11.2052 12.0521C10.9447 11.9218 10.1629 11.6612 9.25081 10.8795C8.5342 10.228 8.07817 9.44626 7.88273 9.25081C7.75245 8.99023 7.88273 8.85993 8.01303 8.79479C8.14332 8.6645 8.27362 8.5342 8.4039 8.4039C8.5342 8.27362 8.5342 8.14332 8.6645 8.01303C8.72964 7.88273 8.72964 7.68729 8.6645 7.62215C8.59935 7.49186 8.14332 6.31922 7.94789 5.86319C7.75244 5.40716 7.557 5.47231 7.42671 5.47231C7.29642 5.47231 7.10098 5.47231 6.97069 5.47231C6.84039 5.47231 6.5798 5.53746 6.31922 5.79805C6.05863 6.05863 5.47231 6.64495 5.47231 7.81759C5.47231 8.99023 6.31922 10.0977 6.44951 10.2931C6.5798 10.4234 8.14332 12.9642 10.5537 13.8762C13.0293 14.8534 13.0293 14.5277 13.4202 14.4626C13.8762 14.3974 14.8534 13.8762 15.0489 13.355C15.1791 12.5733 15.1791 12.0521 15.114 11.987Z" fill="white"/>
</svg>
